{"title":"Janeman (2012)  -  Bengali  -   DVD RIP","uid":7460297,"size":735267162,"categoryP":"video","categoryS":"movies","magnet":"?xt=urn:btih:757485f6973484f723cd2820d2fe003eb2c4b74a&amp;dn=Janeman+%282012%29++-++Bengali++-+++DVD+RIP&amp;tr=udp%3A%2F%2Ftracker.openbittorrent.com%3A80&amp;tr=udp%3A%2F%2Fopen.demonii.com%3A1337&amp;tr=udp%3A%2F%2Ftracker.coppersurfer.tk%3A6969&amp;tr=udp%3A%2F%2Fexodus.desync.com%3A6969","seeders":0,"leechers":2,"uploader":"bitikechudi","files":-1,"time":1342797462,"description":"\n\n\n\nScreens : \n\n\n\n &lt;a href=&quot;\nhttp://www.shotpix.com/images/33723271801683199243.jpeg&quot; rel=&quot;nofollow&quot; target=&quot;_NEW&quot;&gt;\nhttp://www.shotpix.com/images/33723271801683199243.jpeg&lt;/a&gt;\n &lt;a href=&quot;\nhttp://www.shotpix.com/images/36164547299419010331.jpg&quot; rel=&quot;nofollow&quot; target=&quot;_NEW&quot;&gt;\nhttp://www.shotpix.com/images/36164547299419010331.jpg&lt;/a&gt;\n\n\n\n\nExtra Screens : \n\n\n\n &lt;a href=&quot;\nhttp://www.shotpix.com/images/35332495399774863606.jpg&quot; rel=&quot;nofollow&quot; target=&quot;_NEW&quot;&gt;\nhttp://www.shotpix.com/images/35332495399774863606.jpg&lt;/a&gt;\n &lt;a href=&quot;\nhttp://www.shotpix.com/images/17044165594141189178.jpg&quot; rel=&quot;nofollow&quot; target=&quot;_NEW&quot;&gt;\nhttp://www.shotpix.com/images/17044165594141189178.jpg&lt;/a&gt;\n &lt;a href=&quot;\nhttp://www.shotpix.com/images/50211513653202934274.jpg&quot; rel=&quot;nofollow&quot; target=&quot;_NEW&quot;&gt;\nhttp://www.shotpix.com/images/50211513653202934274.jpg&lt;/a&gt;\n &lt;a href=&quot;\nhttp://www.shotpix.com/images/07208663467006588520.jpg&quot; rel=&quot;nofollow&quot; target=&quot;_NEW&quot;&gt;\nhttp://www.shotpix.com/images/07208663467006588520.jpg&lt;/a&gt;\n\n\n\n\nMedia Info :\n\n\n\n\nFormat                           : AVI\nFormat/Info                      : Audio Video Interleave\nFile size                        : 700 MiB\nDuration                         : 2h 19mn\nOverall bit rate                 : 703 Kbps\n\nVideo\nID                               : 0\nFormat                           : MPEG-4 Visual\nFormat profile                   : Advanced Simple@L5\nFormat settings, BVOP            : 1\nFormat settings, QPel            : No\nFormat settings, GMC             : No warppoints\nFormat settings, Matrix          : Custom\nCodec ID                         : XVID\nCodec ID/Hint                    : XviD\nDuration                         : 2h 19mn\nBit rate                         : 573 Kbps\nWidth                            : 528 pixels\nHeight                           : 240 pixels\nDisplay aspect ratio             : 2.2:1\nFrame rate                       : 23.976 fps\nColor space                      : YUV\nChroma subsampling               : 4:2:0\nBit depth                        : 8 bits\nScan type                        : Progressive\nCompression mode                 : Lossy\nBits/(Pixel*Frame)               : 0.189\nStream size                      : 571 MiB (82%)\n\nAudio\nID                               : 1\nFormat                           : MPEG Audio\nFormat version                   : Version 1\nFormat profile                   : Layer 3\nMode                             : Joint stereo\nMode extension                   : MS Stereo\nCodec ID                         : 55\nCodec ID/Hint                    : MP3\nDuration                         : 2h 19mn\nBit rate mode                    : Variable\nBit rate                         : 117 Kbps\nNominal bit rate                 : 128 Kbps\nChannel(s)                       : 2 channels\nSampling rate                    : 48.0 KHz\nCompression mode                 : Lossy\nStream size                      : 117 MiB (17%)\nAlignment                        : Aligned on interleaves\nInterleave, duration             : 24 ms (0.58 video frame)\n\n\n\n\n","torrent":{"xt":"urn:btih:757485f6973484f723cd2820d2fe003eb2c4b74a","amp;dn":"Janeman+%282012%29++-++Bengali++-+++DVD+RIP","amp;tr":["udp%3A%2F%2Ftracker.openbittorrent.com%3A80","udp%3A%2F%2Fopen.demonii.com%3A1337","udp%3A%2F%2Ftracker.coppersurfer.tk%3A6969","udp%3A%2F%2Fexodus.desync.com%3A6969"],"infoHash":"757485f6973484f723cd2820d2fe003eb2c4b74a","infoHashBuffer":{"type":"Buffer","data":[117,116,133,246,151,52,132,247,35,205,40,32,210,254,0,62,178,196,183,74]},"announce":[],"urlList":[]}}